<?xml version="1.0" standalone="no"?>
<!DOCTYPE svg PUBLIC "-//W3C//DTD SVG 20010904//EN"
 "http://www.w3.org/TR/2001/REC-SVG-20010904/DTD/svg10.dtd">
<svg version="1.0" xmlns="http://www.w3.org/2000/svg"
 width="162.000000pt" height="184.000000pt" viewBox="0 0 162.000000 184.000000"
 preserveAspectRatio="xMidYMid meet">

<g transform="translate(0.000000,184.000000) scale(0.100000,-0.100000)"
fill="#000000" stroke="none">
<path d="M888 1639 c13 -5 30 -16 38 -24 9 -8 24 -15 35 -15 11 0 18 -4 15 -9
-3 -4 6 -6 21 -3 20 4 24 2 18 -8 -6 -10 -3 -12 13 -8 12 4 25 2 28 -4 3 -5
15 -8 25 -5 10 3 20 0 23 -7 3 -8 5 -8 5 1 2 24 -162 94 -218 92 l-26 0 23
-10z"/>
<path d="M467 1518 c-45 -48 -107 -140 -107 -161 0 -8 -8 -25 -18 -38 -54 -70
-73 -117 -79 -201 -13 -165 -7 -242 21 -290 14 -23 30 -53 35 -64 5 -12 16
-24 24 -27 8 -3 18 -19 22 -36 4 -17 11 -31 16 -31 6 0 7 5 3 12 -18 29 -21
94 -8 147 8 30 17 57 19 59 2 3 26 -6 52 -19 56 -26 109 -30 149 -9 36 19 45
31 38 52 -2 9 0 19 7 23 6 4 -7 15 -33 27 -31 14 -55 18 -88 14 -59 -8 -101
-8 -109 0 -7 7 47 56 94 85 17 10 26 19 20 19 -5 0 -1 8 10 16 20 16 20 16 -2
10 -26 -8 -38 8 -19 26 7 8 16 23 20 35 13 41 78 58 219 58 l129 0 29 -33 c28
-31 40 -60 19 -47 -5 3 -10 -1 -10 -10 0 -14 -9 -16 -50 -13 -28 1 -50 0 -50
-5 0 -17 42 -42 74 -44 54 -3 93 -28 101 -64 4 -17 5 -32 2 -35 -2 -2 -21 3
-43 12 -43 18 -119 14 -189 -10 -42 -15 -59 -45 -45 -81 9 -23 82 -65 87 -50
2 6 25 8 53 7 34 -3 58 1 75 12 13 9 31 16 39 16 7 0 17 7 20 16 10 27 49 12
68 -26 26 -55 68 -185 68 -212 0 -56 -13 -89 -41 -105 -16 -10 -29 -22 -29
-28 0 -5 -16 -18 -34 -27 -33 -16 -69 -15 -93 4 -13 11 -53 -23 -53 -45 0 -26
-171 -87 -242 -87 -18 0 -48 9 -65 20 -33 19 -38 34 -33 90 2 21 0 22 -14 11
-13 -11 -17 -10 -22 5 -15 48 -24 62 -44 67 -15 4 -20 2 -17 -7 3 -7 -1 -13
-9 -13 -10 0 -12 7 -8 21 4 15 3 17 -4 7 -7 -9 -12 -10 -16 -2 -4 6 0 21 8 33
13 18 16 19 16 6 0 -14 5 -15 33 -7 17 5 33 13 35 18 1 4 9 17 16 27 13 17 14
16 9 -9 l-6 -28 59 3 c64 3 80 21 25 26 -38 4 -60 25 -61 58 0 29 28 94 40 94
6 0 10 5 10 10 0 22 -20 8 -61 -44 -24 -30 -58 -63 -76 -72 -17 -10 -36 -27
-42 -38 -11 -20 -11 -20 -5 1 4 18 2 22 -10 17 -16 -6 -23 -64 -8 -64 4 0 8
-14 9 -31 6 -77 79 -181 175 -247 24 -16 58 -48 76 -70 57 -72 141 -75 269 -8
37 19 70 33 75 30 24 -15 193 144 226 213 9 18 19 33 24 33 4 0 7 42 5 92 l-2
93 60 6 c72 8 101 35 90 84 -4 16 -9 68 -11 115 -5 133 -11 167 -32 209 -11
21 -27 74 -35 117 -16 85 -44 154 -78 194 -18 22 -19 22 -10 3 6 -12 16 -25
22 -29 8 -5 8 -9 -1 -14 -16 -10 -23 -90 -9 -106 6 -7 8 -18 4 -24 -3 -5 0
-13 8 -16 25 -9 47 -144 25 -144 -4 0 -20 19 -35 42 -20 30 -29 37 -31 24 -3
-14 -7 -12 -24 9 -45 58 -257 140 -403 157 -93 10 -333 -4 -382 -23 l-23 -9
21 29 c12 16 30 32 40 34 11 3 19 14 19 27 0 12 11 35 25 52 27 32 30 43 15
53 -6 4 -8 11 -4 16 3 5 10 6 16 3 7 -4 8 -2 4 5 -4 6 -13 8 -19 4 -7 -3 -3 3
7 15 35 40 4 23 -37 -20z m883 -513 c0 -8 -4 -15 -10 -15 -5 0 -10 7 -10 15 0
8 5 15 10 15 6 0 10 -7 10 -15z m-451 -51 c17 -4 36 -14 40 -23 8 -14 1 -16
-57 -13 -89 4 -104 10 -72 27 28 16 44 18 89 9z m-335 -13 c8 -12 -18 -21 -60
-21 -32 0 -42 8 -27 23 10 10 81 8 87 -2z m276 -41 c0 -5 17 -12 38 -16 l37
-7 -30 -9 c-28 -7 -78 -3 -99 10 -5 2 2 11 15 18 29 16 39 17 39 4z m-295 -32
c-21 -5 -46 -5 -55 -2 -19 9 46 22 75 15 14 -4 9 -7 -20 -13z m652 -282 c-3
-8 -11 -32 -18 -55 -7 -22 -20 -48 -31 -57 -17 -16 -18 -16 -18 4 0 13 -6 22
-16 22 -19 0 -15 41 5 48 8 3 11 0 7 -7 -4 -6 -4 -11 1 -11 4 0 19 16 32 35
23 34 48 48 38 21z"/>
<path d="M1134 1541 c7 -11 46 -35 46 -28 0 3 -12 12 -26 22 -15 9 -23 12 -20
6z"/>
<path d="M1195 1480 c10 -11 20 -20 23 -20 3 0 -3 9 -13 20 -10 11 -20 20 -23
20 -3 0 3 -9 13 -20z"/>
<path d="M460 1349 c0 -5 5 -7 10 -4 6 3 10 8 10 11 0 2 -4 4 -10 4 -5 0 -10
-5 -10 -11z"/>
<path d="M1138 1343 c7 -3 16 -2 19 1 4 3 -2 6 -13 5 -11 0 -14 -3 -6 -6z"/>
<path d="M785 784 c25 -25 14 -37 -56 -57 -51 -16 -72 -17 -102 -9 -38 10 -39
9 -32 -17 4 -14 7 -27 8 -28 1 0 32 -4 70 -7 62 -5 68 -4 82 18 34 51 95 53
95 3 0 -38 -26 -54 -79 -49 -27 2 -57 -1 -67 -7 -11 -6 -13 -11 -6 -11 7 0 11
-3 9 -7 -3 -5 30 -9 73 -10 59 -2 79 1 83 12 7 16 41 10 58 -11 18 -22 56 -16
79 13 26 33 15 46 -40 46 -44 0 -69 19 -141 105 -15 18 -32 32 -39 32 -7 0 -5
-6 5 -16z"/>
</g>
</svg>
